# xmcd
#
# Track frame offsets:
#	150
#	15456
#	35441
#	49216
#	65221
#	79681
#	100326
#	118017
#	136561
#	157955
#	174081
#	193013
#	213708
#	237654
#	256077
#
# Disc length: 3652 seconds
#
# Revision: 1
# Processed by: cddbd v1.5.2PL0 Copyright (c) Steve Scherf et al.
# Submitted via: audiograbber 1.83.01
#
DISCID=c80e420f
DTITLE=Mississippi Chris Sharp - Voices in the Wind
DYEAR=2007
DGENRE=Blues
TTITLE0=River Boat Song
TTITLE1=Bye Bye Birdie
TTITLE2=Working Man's Blues
TTITLE3=Green Pastures
TTITLE4=Lazy River
TTITLE5=Rock Island Line
TTITLE6=Stinky to a Dog
TTITLE7=Voices in the Wind
TTITLE8=Saro Jane
TTITLE9=Nadine
TTITLE10=Cumberland Man's Lament
TTITLE11=Cumberland Man's Lament
TTITLE12=Sixteen Tons
TTITLE13=Be Ready
TTITLE14=Those Shoes That You're Wearing
EXTD=
EXTT0=
EXTT1=
EXTT2=
EXTT3=
EXTT4=
EXTT5=
EXTT6=
EXTT7=
EXTT8=
EXTT9=
EXTT10=
EXTT11=
EXTT12=
EXTT13=
EXTT14=
PLAYORDER=
